<svg width="196" height="196" viewBox="0 0 196 196" fill="none" xmlns="http://www.w3.org/2000/svg">
<path d="M129.781 60.3207C131.355 58.7466 133.907 58.7467 135.481 60.3207C137.056 61.8949 137.056 64.4468 135.481 66.0209L113.322 88.1801C107.774 93.7285 107.774 102.724 113.322 108.273L134.905 129.856C136.508 131.458 136.508 134.056 134.905 135.659C133.303 137.26 130.706 137.26 129.104 135.659L107.521 114.075C101.972 108.526 92.9761 108.527 87.4277 114.075L66.3223 135.181C64.7481 136.755 62.1952 136.755 60.6211 135.181C59.047 133.607 59.047 131.054 60.6211 129.48L81.7275 108.374C87.2757 102.826 87.2759 93.83 81.7275 88.2817L60.041 66.5961C58.4388 64.9939 58.4388 62.3956 60.041 60.7934C61.6433 59.1913 64.2415 59.1912 65.8438 60.7934L87.5293 82.4799C93.0777 88.0283 102.074 88.0283 107.622 82.4799L129.781 60.3207ZM95.0986 126.59C96.7013 124.988 99.2988 124.988 100.901 126.59C102.504 128.193 102.504 130.791 100.901 132.394C99.2989 133.996 96.7012 133.996 95.0986 132.394C93.496 130.791 93.496 128.193 95.0986 126.59ZM38.9893 90.4819C42.9756 86.4956 49.4395 86.4956 53.4258 90.4819C57.4117 94.4682 57.4119 100.931 53.4258 104.917C49.4395 108.904 42.9756 108.904 38.9893 104.917C35.0032 100.931 35.0034 94.4682 38.9893 90.4819ZM142.574 90.4819C146.561 86.4956 153.024 86.4956 157.011 90.4819C160.997 94.4682 160.997 100.931 157.011 104.917C153.024 108.904 146.561 108.904 142.574 104.917C138.588 100.931 138.588 94.4682 142.574 90.4819Z" stroke="#005E3E" stroke-width="4"/>
</svg>
